<svg width="512" height="512" viewBox="0 0 512 512" fill="none" xmlns="http://www.w3.org/2000/svg">
  <rect width="512" height="512" fill="#1e1b4b"/>
  <defs>
    <linearGradient id="sparkle-gradient" x1="0%" y1="0%" x2="100%" y2="100%">
      <stop offset="0%" style="stop-color:#E879F9;stop-opacity:1" />
      <stop offset="100%" style="stop-color:#A855F7;stop-opacity:1" />
    </linearGradient>
  </defs>
  
  <!-- Center vertical ray -->
  <rect x="246" y="140" width="20" height="80" rx="10" fill="url(#sparkle-gradient)"/>
  
  <!-- Top right diagonal ray -->
  <rect x="310" y="165" width="20" height="70" rx="10" fill="url(#sparkle-gradient)" transform="rotate(45 320 200)"/>
  
  <!-- Right horizontal ray -->
  <rect x="335" y="246" width="80" height="20" rx="10" fill="url(#sparkle-gradient)"/>
  
  <!-- Bottom right diagonal ray -->
  <rect x="310" y="277" width="20" height="70" rx="10" fill="url(#sparkle-gradient)" transform="rotate(-45 320 312)"/>
  
  <!-- Center bottom vertical ray -->
  <rect x="246" y="292" width="20" height="80" rx="10" fill="url(#sparkle-gradient)"/>
  
  <!-- Bottom left diagonal ray -->
  <rect x="182" y="277" width="20" height="70" rx="10" fill="url(#sparkle-gradient)" transform="rotate(45 192 312)"/>
  
  <!-- Left horizontal ray -->
  <rect x="97" y="246" width="80" height="20" rx="10" fill="url(#sparkle-gradient)"/>
  
  <!-- Top left diagonal ray -->
  <rect x="182" y="165" width="20" height="70" rx="10" fill="url(#sparkle-gradient)" transform="rotate(-45 192 200)"/>
  
  <!-- Center circle -->
  <circle cx="256" cy="256" r="25" fill="url(#sparkle-gradient)"/>
</svg>